<svg version="1" xmlns="http://www.w3.org/2000/svg" width="92.127" height="65.39" viewBox="0 0 92.127 65.39"><path fill="#fff" d="M3.599 61.274l-1.481 3.953c-.036.096-.138.162-.24.162s-.21-.066-.246-.162l-1.482-3.953-.018-.09c0-.131.108-.257.264-.257.102 0 .204.054.246.162l1.235 3.352 1.235-3.358c.036-.102.15-.155.246-.155.144 0 .258.113.258.246l-.017.1z"/><path fill="#fff" d="M6.329 65.354h-1.613c-.156 0-.264-.126-.264-.258v-3.886c0-.145.114-.258.264-.258h1.613c.144 0 .258.113.258.258 0 .137-.114.252-.258.252h-1.355v1.445h1.355c.144 0 .258.113.258.258 0 .138-.114.251-.258.251h-1.355v1.427h1.355c.144 0 .258.115.258.253 0 .143-.114.258-.258.258z"/><path fill="#fff" d="M9.845 65.383c-.078 0-.156-.036-.21-.108l-1.349-1.858h-.282v1.709c0 .145-.12.258-.264.258s-.258-.108-.258-.258v-3.916c0-.139.114-.258.258-.258h1.11c.696 0 1.259.557 1.259 1.235 0 .658-.534 1.188-1.188 1.229l1.14 1.565.048.15c0 .139-.12.252-.264.252zm-.995-3.915h-.846v1.439h.846c.408 0 .738-.324.738-.72-.001-.396-.331-.719-.738-.719z"/><path fill="#fff" d="M11.694 65.125c0 .145-.12.258-.264.258s-.258-.113-.258-.258v-3.946c0-.143.114-.258.258-.258s.264.115.264.258v3.946z"/><path fill="#fff" d="M14.664 63.416h-1.344v1.709c0 .145-.126.258-.264.258-.15 0-.264-.113-.264-.258v-3.915c0-.145.114-.258.264-.258h1.607c.156 0 .264.119.264.258 0 .137-.114.252-.264.252h-1.343v1.445h1.343c.156 0 .264.119.264.258 0 .138-.114.251-.263.251z"/><path fill="#fff" d="M16.5 65.125c0 .145-.12.258-.264.258s-.258-.113-.258-.258v-3.946c0-.143.114-.258.258-.258s.264.115.264.258v3.946z"/><path fill="#fff" d="M20.687 65.005c-.228.169-.786.378-1.325.378-.456 0-.936-.198-1.295-.54-.294-.287-.648-.814-.648-1.697 0-.875.348-1.402.648-1.684.36-.342.839-.546 1.289-.546.582 0 1.098.269 1.283.479.048.054.072.108.072.174 0 .155-.108.271-.258.271-.072 0-.126-.03-.192-.085-.186-.155-.552-.317-.888-.317-.57 0-1.421.462-1.421 1.715 0 1.247.846 1.716 1.445 1.716.354 0 .762-.156.996-.294l.138-.042c.156 0 .27.113.27.258-.001.077-.03.154-.114.214z"/><path fill="#fff" d="M24.802 65.383c-.108 0-.21-.06-.252-.162l-.324-.815h-2.026l-.324.822c-.042.096-.15.155-.246.155-.15 0-.258-.113-.258-.246l.018-.101 1.583-3.946c.042-.096.138-.162.24-.162.108 0 .21.06.246.162l1.583 3.946.018.089c0 .133-.108.258-.258.258zm-.785-1.487l-.81-2.021-.804 2.021h1.614z"/><path fill="#fff" d="M27.515 61.462h-.864v3.663c0 .145-.12.258-.264.258s-.258-.113-.258-.258v-3.663h-.864c-.144 0-.258-.115-.258-.252 0-.145.114-.258.258-.258h2.249c.138 0 .258.113.258.258 0 .137-.12.252-.257.252z"/><path fill="#fff" d="M29.069 65.125c0 .145-.12.258-.264.258s-.258-.113-.258-.258v-3.946c0-.143.114-.258.258-.258s.264.115.264.258v3.946z"/><path fill="#fff" d="M31.781 65.383c-1.151 0-1.913-1.108-1.913-2.237 0-1.133.762-2.236 1.913-2.236s1.907 1.128 1.907 2.236c0 1.104-.756 2.237-1.907 2.237zm0-3.963c-.731 0-1.367.659-1.367 1.726 0 1.063.636 1.729 1.367 1.729s1.367-.666 1.367-1.729c0-1.067-.636-1.726-1.367-1.726z"/><path fill="#fff" d="M37.924 65.132c0 .138-.114.251-.258.251-.09 0-.168-.042-.234-.125l-2.423-3.3v3.167c0 .145-.12.258-.264.258s-.258-.113-.258-.258v-3.951c0-.144.108-.253.264-.253.078 0 .168.037.216.102l2.435 3.306v-3.149c0-.143.114-.258.258-.258.144 0 .264.115.264.258v3.952z"/><path fill="#fff" d="M42.893 63.146c0 .138-.12.251-.258.251h-1.043v1.074c0 .138-.114.251-.258.251-.138 0-.252-.113-.252-.251v-1.074h-1.043c-.144 0-.258-.113-.258-.257 0-.139.114-.253.258-.253h1.043v-1.054c0-.139.114-.259.252-.259.144 0 .258.12.258.259v1.054h1.043c.137 0 .258.114.258.259z"/><path fill="#fff" d="M47.633 65.383c-.108 0-.21-.06-.252-.162l-.324-.815h-2.027l-.324.822c-.042.096-.15.155-.246.155-.15 0-.258-.113-.258-.246l.018-.101 1.583-3.946c.042-.096.138-.162.24-.162.107 0 .21.06.245.162l1.584 3.946.018.089c.001.133-.108.258-.257.258zm-.785-1.487l-.81-2.021-.804 2.021h1.614z"/><path fill="#fff" d="M51.935 63.71c0 1.044-.678 1.673-1.691 1.673s-1.69-.629-1.69-1.673v-2.531c0-.143.113-.258.258-.258.144 0 .264.115.264.258v2.52c0 .762.443 1.188 1.169 1.188s1.17-.426 1.17-1.188v-2.52c0-.143.12-.258.258-.258.149 0 .264.115.264.258v2.531z"/><path fill="#fff" d="M55.066 61.462h-.863v3.663c0 .145-.12.258-.264.258s-.258-.113-.258-.258v-3.663h-.863c-.145 0-.258-.115-.258-.252 0-.145.113-.258.258-.258h2.248c.139 0 .259.113.259.258 0 .137-.12.252-.259.252z"/><path fill="#fff" d="M58.966 65.125c0 .145-.119.258-.264.258-.144 0-.264-.113-.264-.258v-1.728h-1.931v1.728c0 .145-.12.258-.264.258-.145 0-.265-.113-.265-.258v-3.946c0-.143.12-.258.265-.258.144 0 .264.115.264.258v1.709h1.931v-1.709c0-.143.12-.258.264-.258.145 0 .264.115.264.258v3.946z"/><path fill="#fff" d="M61.828 65.354h-1.612c-.156 0-.265-.126-.265-.258v-3.886c0-.145.114-.258.265-.258h1.612c.145 0 .258.113.258.258 0 .137-.113.252-.258.252h-1.354v1.445h1.354c.145 0 .258.113.258.258 0 .138-.113.251-.258.251h-1.354v1.427h1.354c.145 0 .258.115.258.253 0 .143-.113.258-.258.258z"/><path fill="#fff" d="M66.418 65.132c0 .138-.114.251-.258.251-.09 0-.168-.042-.234-.125l-2.422-3.3v3.167c0 .145-.12.258-.265.258-.144 0-.258-.113-.258-.258v-3.951c0-.144.108-.253.265-.253.077 0 .168.037.216.102l2.435 3.306v-3.149c0-.143.113-.258.258-.258.144 0 .264.115.264.258v3.952z"/><path fill="#fff" d="M69.58 61.462h-.863v3.663c0 .145-.12.258-.264.258s-.258-.113-.258-.258v-3.663h-.863c-.145 0-.258-.115-.258-.252 0-.145.113-.258.258-.258h2.248c.139 0 .259.113.259.258 0 .137-.12.252-.259.252z"/><path fill="#fff" d="M71.016 65.125c0 .145-.12.258-.265.258-.144 0-.258-.113-.258-.258v-3.946c0-.143.114-.258.258-.258.145 0 .265.115.265.258v3.946z"/><path fill="#fff" d="M74.962 65.005c-.228.169-.786.378-1.325.378-.456 0-.936-.198-1.296-.54-.294-.287-.647-.814-.647-1.697 0-.875.348-1.402.647-1.684.36-.342.84-.546 1.29-.546.581 0 1.097.269 1.283.479.048.054.071.108.071.174 0 .155-.107.271-.258.271-.071 0-.126-.03-.191-.085-.187-.155-.552-.317-.888-.317-.569 0-1.421.462-1.421 1.715 0 1.247.846 1.716 1.445 1.716.354 0 .761-.156.995-.294l.138-.042c.156 0 .271.113.271.258 0 .077-.03.154-.114.214z"/><path fill="#fff" d="M78.958 65.383c-.108 0-.21-.06-.252-.162l-.324-.815h-2.026l-.324.822c-.042.096-.149.155-.245.155-.15 0-.258-.113-.258-.246l.018-.101 1.583-3.946c.042-.096.138-.162.24-.162.107 0 .21.06.245.162l1.584 3.946.018.089c-.001.133-.11.258-.259.258zm-.785-1.487l-.81-2.021-.804 2.021h1.614z"/><path fill="#fff" d="M81.55 61.462h-.863v3.663c0 .145-.12.258-.264.258s-.258-.113-.258-.258v-3.663h-.863c-.145 0-.258-.115-.258-.252 0-.145.113-.258.258-.258h2.248c.139 0 .259.113.259.258 0 .137-.121.252-.259.252z"/><path fill="#fff" d="M82.985 65.125c0 .145-.12.258-.265.258-.144 0-.258-.113-.258-.258v-3.946c0-.143.114-.258.258-.258.145 0 .265.115.265.258v3.946z"/><path fill="#fff" d="M85.702 65.383c-1.151 0-1.913-1.108-1.913-2.237 0-1.133.762-2.236 1.913-2.236s1.907 1.128 1.907 2.236c0 1.104-.755 2.237-1.907 2.237zm0-3.963c-.731 0-1.367.659-1.367 1.726 0 1.063.636 1.729 1.367 1.729s1.367-.666 1.367-1.729c0-1.067-.635-1.726-1.367-1.726z"/><path fill="#fff" d="M91.726 65.132c0 .138-.114.251-.258.251-.09 0-.168-.042-.234-.125l-2.422-3.3v3.167c0 .145-.12.258-.265.258-.144 0-.258-.113-.258-.258v-3.951c0-.144.108-.253.265-.253.077 0 .168.037.216.102l2.435 3.306v-3.149c0-.143.113-.258.258-.258.144 0 .264.115.264.258v3.952z"/><path fill="#CED71E" d="M87.295 17.462h-70.809c-.567 0-1.026.459-1.026 1.026s.459 1.026 1.026 1.026h70.809c2.198 0 2.779 1.703 2.779 2.603v29.483c0 2.57-2.752 2.601-2.779 2.601h-82.462c-2.199 0-2.78-1.701-2.78-2.601v-29.482c0-2.573 2.75-2.603 2.78-2.603l5.253-.012v28.754c0 .787.65 1.438 1.437 1.438.821 0 1.471-.651 1.471-1.438v-12.52c1.368-1.437 3.079-2.326 4.96-2.326 2.395 0 3.695 1.813 3.695 4.071v10.775c0 .787.65 1.438 1.437 1.438.821 0 1.471-.651 1.471-1.438v-10.775c0-3.832-2.702-6.979-6.5-6.979-1.882 0-3.558.616-5.063 1.813v-13.432c0-.778-.635-1.419-1.442-1.434l-.014-.003h-.014l-6.692.015c-2.343 0-4.832 1.632-4.832 4.656v29.483c0 2.256 1.693 4.653 4.833 4.653h82.462c2.343 0 4.832-1.631 4.832-4.653v-29.483c0-2.257-1.693-4.656-4.832-4.656z"/><path fill="#CED71E" d="M43.715 39.466c0-3.66-3.079-8.997-8.142-8.997-4.619 0-8.211 4.413-8.211 9.715 0 5.028 3.148 9.546 8.04 9.546 2.566 0 6.021-1.198 7.423-2.703.24-.274.445-.547.445-1.062 0-.854-.581-1.437-1.471-1.437-.342 0-.684.137-.992.377-1.403 1.06-3.25 1.882-5.097 1.882-2.977 0-4.961-2.224-5.337-5.269h11.905c.821.002 1.437-.41 1.437-2.052zm-13.274-.82c.582-3.011 2.6-5.269 5.098-5.269 2.463 0 4.515 2.258 5.097 5.269h-10.195z"/><path fill="#CED71E" d="M79.327 49.696c.787 0 1.506-.651 1.506-1.438v-24.357c0-.787-.719-1.437-1.506-1.437-.821 0-1.472.65-1.472 1.437v8.997c-1.196-1.676-3.181-2.429-5.097-2.429-4.584 0-8.074 4.378-8.074 9.887 0 2.6.821 5.063 2.327 6.738 1.505 1.677 3.626 2.602 5.747 2.602 1.847 0 3.9-.651 5.097-2.156v.718c0 .787.651 1.438 1.472 1.438zm-6.329-2.908c-3.216 0-5.302-2.703-5.302-6.432 0-3.797 1.949-6.979 5.199-6.979 2.873 0 4.96 2.839 4.96 6.876v3.763c-1.265 2.053-3.455 2.772-4.857 2.772z"/><path fill="#CED71E" d="M60.307 49.696c.786 0 1.504-.651 1.504-1.438v-24.357c0-.787-.718-1.437-1.504-1.437-.822 0-1.472.65-1.472 1.437v8.997c-1.197-1.676-3.183-2.429-5.097-2.429-4.584 0-8.074 4.378-8.074 9.887 0 2.6.821 5.063 2.327 6.738 1.505 1.677 3.626 2.602 5.747 2.602 1.847 0 3.899-.651 5.097-2.156v.718c0 .787.649 1.438 1.472 1.438zm-6.329-2.908c-3.217 0-5.303-2.703-5.303-6.432 0-3.797 1.95-6.979 5.2-6.979 2.874 0 4.96 2.839 4.96 6.876v3.763c-1.265 2.053-3.455 2.772-4.857 2.772z"/><path fill="none" d="M.001 17.447h92.126v38.807h-92.126z"/><path fill="#fff" d="M.303 13.343v-12.513c0-.444.367-.83.83-.83h3.418c2.472 0 4.48 2.008 4.48 4.499 0 2.472-2.008 4.48-4.48 4.48h-1.1c-.464 0-.831-.367-.831-.83 0-.444.367-.811.831-.811h1.1c1.564 0 2.839-1.275 2.839-2.839 0-1.583-1.275-2.858-2.839-2.858h-2.587v11.702c0 .463-.367.83-.831.83-.463 0-.83-.367-.83-.83"/><path fill="#fff" d="M14.958 7.937h-1.198c-.444 0-.811-.367-.811-.811 0-.464.367-.83.811-.83h1.217c1.294 0 2.336-1.043 2.336-2.318 0-1.274-1.042-2.317-2.336-2.317h-2.665v11.683c0 .463-.367.83-.83.83-.444 0-.811-.367-.811-.83v-12.513c0-.444.367-.83.811-.83h3.495c2.201 0 3.978 1.795 3.978 3.977 0 2.202-1.816 3.959-3.997 3.959"/><path fill="#fff" d="M18.8 12.88c.097.135.155.29.155.464 0 .444-.367.83-.831.83-.251 0-.502-.116-.656-.348l-2.762-3.92c-.096-.135-.135-.308-.135-.463 0-.425.309-.83.792-.83.309 0 .56.154.695.347l2.742 3.92z"/><path fill="#fff" d="M26.427 13.305c0-.425.251-.579.599-.753 1.815-.946 3.417-2.144 3.417-5.156 0-3.34-1.95-5.754-4.344-5.754-2.395 0-4.345 2.414-4.345 5.754 0 2.974 1.545 4.171 3.398 5.156.367.193.599.328.599.753 0 .618-.483.869-.83.869l-.213-.039c-2.935-.907-4.615-3.92-4.615-6.913 0-3.553 2.376-7.221 6.006-7.221s5.986 3.707 5.986 7.183c0 3.051-1.815 6.217-4.615 6.951l-.251.039c-.329 0-.792-.309-.792-.869"/><path fill="#fff" d="M33.436 13.131c-.232-.155-.367-.444-.367-.714 0-.464.386-.792.83-.792.155 0 .29.039.425.116.174.116 1.082.791 2.549.791 1.429 0 3.206-.637 3.206-2.433 0-1.911-2.028-2.394-3.283-2.838-1.738-.618-3.495-1.68-3.495-3.804 0-2.221 1.95-3.418 4.093-3.418 1.236 0 2.569.406 3.245.985.25.212.347.425.347.656 0 .483-.425.831-.85.831-.173 0-.308-.058-.463-.155-.522-.328-1.082-.656-2.163-.656-1.293 0-2.549.483-2.549 1.738 0 .405.136 1.602 2.897 2.413.656.193 3.862 1.082 3.862 4.248 0 2.762-2.452 4.075-4.885 4.075-1.604 0-2.686-.58-3.399-1.043"/><path fill="#fff" d="M43.534 13.343v-12.513c0-.444.367-.83.83-.83h3.417c2.473 0 4.48 2.008 4.48 4.499 0 2.472-2.008 4.48-4.48 4.48h-1.101c-.463 0-.83-.367-.83-.83 0-.444.367-.811.83-.811h1.101c1.564 0 2.84-1.275 2.84-2.839 0-1.583-1.275-2.858-2.84-2.858h-2.586v11.702c0 .463-.367.83-.831.83-.463 0-.83-.367-.83-.83"/><path fill="#fff" d="M53.902 4.789v-3.959c0-.463.366-.83.83-.83h5.078c.444 0 .812.367.812.83 0 .445-.367.811-.812.811h-4.268v3.148c0 .463-.366.83-.811.83-.462 0-.829-.367-.829-.83"/><path fill="#fff" d="M53.902 13.343v-6.218c0-.463.366-.83.83-.83h5.078c.444 0 .812.367.812.83 0 .444-.367.811-.812.811h-4.268v4.596h4.268c.444 0 .812.367.812.811 0 .463-.367.83-.812.83h-5.078c-.482 0-.83-.405-.83-.83"/><path fill="#fff" d="M64.154 12.455c-.927-.908-2.026-2.568-2.026-5.368s1.1-4.46 2.026-5.368c1.12-1.081 2.626-1.719 4.018-1.719 1.641 0 3.436.869 4.016 1.526.154.174.231.347.231.56 0 .502-.386.849-.85.849-.231 0-.366-.077-.56-.251-.579-.502-1.719-1.023-2.781-1.023-1.775 0-4.44 1.448-4.44 5.445 0 3.978 2.646 5.426 4.519 5.426 1.1 0 2.375-.502 3.108-.927.154-.096.271-.135.425-.135.502 0 .85.386.85.85 0 .251-.097.463-.348.656-.714.541-2.684 1.198-4.151 1.198-1.411 0-2.917-.618-4.037-1.719"/><path fill="none" d="M.303 0h91.521v14.173h-91.521z"/><path fill="#fff" d="M74.543 1.699c-.463 0-.83-.367-.83-.83s.367-.83.83-.83h7.028c.463 0 .83.367.83.83s-.367.83-.83.83h-7.028z"/><path fill="#fff" d="M77.227 13.343v-10.156c0-.463.367-.83.83-.83.444 0 .811.367.811.83v10.157c0 .463-.366.83-.811.83-.463-.001-.83-.368-.83-.831"/><path fill="#fff" d="M83.54 13.131c-.231-.155-.366-.444-.366-.714 0-.464.386-.792.829-.792.155 0 .29.039.426.116.174.116 1.082.791 2.549.791 1.429 0 3.205-.637 3.205-2.433 0-1.911-2.027-2.394-3.282-2.838-1.738-.618-3.495-1.68-3.495-3.804 0-2.221 1.95-3.418 4.093-3.418 1.236 0 2.569.406 3.244.985.251.212.348.425.348.656 0 .483-.425.831-.849.831-.174 0-.309-.058-.464-.155-.522-.328-1.082-.656-2.164-.656-1.293 0-2.549.483-2.549 1.738 0 .405.136 1.602 2.896 2.413.657.193 3.862 1.082 3.862 4.248 0 2.762-2.452 4.075-4.885 4.075-1.602 0-2.684-.58-3.398-1.043"/><path fill="none" d="M.001 0h92.126v14.173h-92.126z"/></svg>